<svg width="500" height="52" viewBox="0 0 500 52" fill="none" xmlns="http://www.w3.org/2000/svg">
<path fill-rule="evenodd" clip-rule="evenodd" d="M0 50.7643V3.89192H23.4361C26.9051 3.89192 43.8265 3.63811 43.8265 14.3833C43.8265 20.6441 37.8194 23.5208 32.2354 24.7052C38.5809 25.7206 45.7725 28.5972 45.7725 36.8887C45.7725 50.0874 27.1589 50.7643 23.6054 50.7643H0ZM18.0214 24.1976H20.5595C24.3669 24.1976 27.3281 23.1824 27.4974 15.2292V14.5524C27.3281 4.90721 23.0131 5.24564 18.0214 5.24564V24.1976ZM18.0214 49.326C26.059 49.326 28.0896 47.2954 28.2588 37.481C28.2588 28.428 26.482 25.7206 18.0214 25.7206V49.326ZM65.077 14.8063C60.2544 14.8063 56.2779 11.5066 56.2779 7.44543C56.2779 3.29967 60.2544 0 65.077 0C69.8996 0 73.7915 3.29967 73.7915 7.44543C73.7915 11.5066 69.8996 14.8063 65.077 14.8063ZM65.8385 51.695C59.4929 51.695 56.3625 48.4799 56.3625 43.8265V23.8593C56.3625 23.8593 56.4471 22.0825 55.601 21.744C54.3319 21.2364 53.4013 23.3516 53.4013 25.0438H52.0475C52.2168 23.5208 52.6397 21.744 53.8242 20.2211C56.024 17.3445 59.916 16.0754 64.1464 16.0754C70.4919 16.0754 73.7069 19.2904 73.7069 23.8593V43.8265C73.7069 43.8265 73.6224 45.7725 74.4684 46.0262C75.5683 46.3647 76.1605 44.8418 76.3298 44.4188C77.1759 41.7114 76.4144 39.0039 76.4144 38.9193L77.6835 38.5809C77.7681 38.8346 79.1217 43.7419 76.2451 47.5492C74.13 50.3412 71.0841 51.695 65.8385 51.695ZM103.926 51.1027C92.4193 51.1027 86.5813 46.5339 86.5813 46.5339V7.78386C86.5813 7.78386 86.6659 6.00711 85.8199 5.66867C84.5508 5.16104 83.62 7.27621 83.62 8.96836H82.2664C82.4355 7.44542 82.8586 5.66867 84.0431 4.14575C86.2429 1.26911 90.1348 0 94.3651 0C100.711 0 103.926 3.21507 103.926 7.78386V23.267C105.449 19.2904 108.664 16.4137 115.009 16.4137C123.893 16.4137 128.378 22.7594 128.378 30.7124C128.378 50.3413 115.771 51.1027 103.926 51.1027ZM103.926 49.749C103.926 49.749 111.371 53.3871 111.371 31.22C111.371 24.7052 110.441 20.8134 107.987 20.8134C104.349 20.8134 103.926 27.5819 103.926 31.1354V49.749ZM147.681 14.8063C142.859 14.8063 138.883 11.5066 138.883 7.44543C138.883 3.29967 142.859 0 147.681 0C152.504 0 156.396 3.29967 156.396 7.44543C156.396 11.5066 152.504 14.8063 147.681 14.8063ZM148.444 51.695C142.098 51.695 138.967 48.4799 138.967 43.8265V23.8593C138.967 23.8593 139.051 22.0825 138.206 21.744C136.936 21.2364 136.006 23.3516 136.006 25.0438H134.652C134.821 23.5208 135.245 21.744 136.429 20.2211C138.629 17.3445 142.521 16.0754 146.751 16.0754C153.096 16.0754 156.311 19.2904 156.311 23.8593V43.8265C156.311 43.8265 156.227 45.7725 157.074 46.0262C158.173 46.3647 158.765 44.8418 158.935 44.4188C159.78 41.7114 159.019 39.0039 159.019 38.9193L160.289 38.5809C160.372 38.8346 161.726 43.7419 158.85 47.5492C156.735 50.3412 153.689 51.695 148.444 51.695ZM222.164 51.695C205.159 51.695 196.021 43.3189 196.021 29.3586C196.021 17.6829 203.042 2.79204 225.971 2.79204C235.786 2.79204 243.824 9.476 243.824 17.3445C243.824 21.1518 240.694 24.2822 236.886 24.2822C233.079 24.2822 229.947 21.1518 229.947 17.3445C229.947 13.4525 233.079 10.3221 236.886 10.3221C239.678 10.3221 240.44 11.0835 240.44 11.0835C237.733 7.27621 233.501 4.82261 228.679 4.82261C218.357 4.82261 216.495 15.9907 216.495 28.428C216.495 38.2424 219.88 48.7337 229.61 48.7337C239.001 48.7337 242.639 41.8805 242.639 41.8805L243.824 42.5574C243.824 42.5574 239.678 51.695 222.164 51.695ZM271.759 51.695C256.19 51.695 251.367 42.8112 251.367 35.2811C251.367 26.6512 256.529 15.7369 272.689 15.7369C286.649 15.7369 294.01 22.0825 294.01 32.3199C294.01 44.0804 285.973 51.695 271.759 51.695ZM272.689 50.3412C275.228 50.3412 276.073 47.2954 276.073 43.3189V25.3821C276.073 19.5443 275.228 17.006 272.689 17.006C270.15 17.006 269.389 19.5443 269.389 25.636V43.7419C269.389 47.2954 270.15 50.3412 272.689 50.3412ZM314.076 51.695C308.069 51.695 304.6 48.7337 304.6 43.8265V23.7746C304.6 23.7746 304.685 21.9979 303.839 21.6594C302.569 21.1517 301.639 23.267 301.639 24.9591H300.285C300.454 23.4361 300.878 21.6594 302.061 20.1365C304.261 17.2599 308.154 15.9907 312.384 15.9907C317.629 15.9907 320.675 18.1905 321.606 21.4902C323.89 17.1752 328.544 15.9907 333.959 15.9907C342.335 15.9907 345.804 19.2904 345.804 26.482V43.8265C345.804 48.9875 349.357 48.2261 349.357 48.2261C347.411 50.9335 342.081 51.695 337.935 51.695C331.927 51.695 328.375 48.7337 328.375 43.8265V26.9896C328.375 22.7594 327.698 21.744 326.09 21.2364C325.159 20.898 322.96 21.1518 321.944 23.6054V43.8265C321.944 48.9875 325.497 48.2261 325.497 48.2261C323.551 50.9335 318.221 51.695 314.076 51.695ZM367.307 51.695C361.301 51.695 357.831 48.7337 357.831 43.8265V23.7746C357.831 23.7746 357.916 21.9979 357.07 21.6594C355.801 21.1517 354.87 23.267 354.87 24.9591H353.516C353.686 23.4361 354.109 21.6594 355.294 20.1365C357.494 17.2599 361.385 15.9907 365.616 15.9907C370.861 15.9907 373.908 18.1905 374.837 21.4902C377.122 17.1752 381.776 15.9907 387.19 15.9907C395.566 15.9907 399.035 19.2904 399.035 26.482V43.8265C399.035 48.9875 402.589 48.2261 402.589 48.2261C400.643 50.9335 395.312 51.695 391.167 51.695C385.16 51.695 381.606 48.7337 381.606 43.8265V26.9896C381.606 22.7594 380.93 21.744 379.323 21.2364C378.391 20.898 376.191 21.1518 375.176 23.6054V43.8265C375.176 48.9875 378.73 48.2261 378.73 48.2261C376.784 50.9335 371.454 51.695 367.307 51.695ZM429.254 51.695C413.686 51.695 408.864 42.8112 408.864 35.2811C408.864 26.6512 414.025 15.7369 430.185 15.7369C444.145 15.7369 451.506 22.0825 451.506 32.3199C451.506 44.0804 443.469 51.695 429.254 51.695ZM430.185 50.3412C432.724 50.3412 433.569 47.2954 433.569 43.3189V25.3821C433.569 19.5443 432.724 17.006 430.185 17.006C427.646 17.006 426.885 19.5443 426.885 25.636V43.7419C426.885 47.2954 427.646 50.3412 430.185 50.3412ZM471.573 51.695C465.565 51.695 462.096 48.7337 462.096 43.8265V23.8593C462.096 23.8593 462.181 22.0825 461.335 21.744C460.065 21.2364 459.135 23.3516 459.135 25.0438H457.781C457.95 23.5208 458.374 21.744 459.557 20.2211C461.758 17.3445 465.65 16.0754 469.88 16.0754C476.225 16.0754 479.44 19.2904 479.44 23.8593V25.0438C480.117 23.0131 481.132 21.0671 482.74 19.4596C484.686 17.5136 487.224 16.4984 490.27 16.4984C493.739 16.4984 496.446 17.4291 498.054 19.4596C499.746 21.5749 500 24.1976 500 25.7206V25.8051C500 30.2048 496.446 33.7582 492.047 33.7582C487.647 33.7582 484.094 30.2048 484.094 25.8051C484.094 21.4902 487.647 17.9367 492.047 17.9367H492.131C491.539 17.8521 490.948 17.7675 490.27 17.7675C487.562 17.7675 485.363 18.6981 483.671 20.3904C479.61 24.4515 479.44 31.0509 479.44 32.8276V43.8265C479.44 48.9875 482.994 48.2261 482.994 48.2261C481.047 50.9335 475.717 51.695 471.573 51.695Z" fill="#004C47"/>
</svg>
